<svg xmlns="http://www.w3.org/2000/svg">
    <defs>
        <clipPath clipPathUnits="userSpaceOnUse" id="a">
            <path d="M0 192h192V0H0v192z"/>
        </clipPath>
        <clipPath clipPathUnits="userSpaceOnUse" id="b">
            <path d="M0 192h192V0H0v192z"/>
        </clipPath>
        <clipPath clipPathUnits="userSpaceOnUse" id="c">
            <path d="M0 192h192V0H0v192z"/>
        </clipPath>
        <clipPath clipPathUnits="userSpaceOnUse" id="d">
            <path d="M0 192h192V0H0v192z"/>
        </clipPath>
        <clipPath clipPathUnits="userSpaceOnUse" id="e">
            <path d="M0 192h192V0H0v192z"/>
        </clipPath>
        <clipPath clipPathUnits="userSpaceOnUse" id="f">
            <path d="M0 192h192V0H0v192z"/>
        </clipPath>
        <clipPath clipPathUnits="userSpaceOnUse" id="g">
            <path d="M0 192h192V0H0v192z"/>
        </clipPath>
        <clipPath clipPathUnits="userSpaceOnUse" id="h">
            <path d="M192 192H0V0h192v192z"/>
        </clipPath>
        <clipPath clipPathUnits="userSpaceOnUse" id="i">
            <path d="M36 12v24.125H15.875v152.25h160.25V36.125H156V12h-44v24.125H80V12z" fill="red" stroke-width="23.686"/>
        </clipPath>
    </defs>
    <g fill="red" stroke="#000" stroke-linecap="round">
        <path d="M118 91.8v48.4M74 91.8v48.4" stroke-width="7.92"/>
        <path d="M74 91.8l44 48.4" stroke-width="8.307"/>
    </g>
    <path d="M96 8.7L70.5 70.888l2.414 2.413L96 63.1l23.086 10.2 2.414-2.413z"/>
</svg>